<mxfile host="app.diagrams.net" modified="2023-05-05T18:02:12.832Z" agent="Mozilla/5.0 (Windows NT 10.0; Win64; x64; rv:109.0) Gecko/20100101 Firefox/112.0" etag="DXOvUArUxJVXIjXRPBds" version="21.2.3" type="device">
  <diagram name="Page-1" id="qpa4ythTmkGnN0hlQlPB">
    <mxGraphModel dx="393" dy="644" grid="1" gridSize="10" guides="1" tooltips="1" connect="1" arrows="1" fold="1" page="1" pageScale="1" pageWidth="1200" pageHeight="1600" math="0" shadow="0">
      <root>
        <mxCell id="0" />
        <mxCell id="1" parent="0" />
        <mxCell id="SJl9S5k6pzfphBeWM_fD-53" value="" style="edgeStyle=orthogonalEdgeStyle;rounded=0;orthogonalLoop=1;jettySize=auto;html=1;" edge="1" parent="1" source="SJl9S5k6pzfphBeWM_fD-1" target="SJl9S5k6pzfphBeWM_fD-45">
          <mxGeometry relative="1" as="geometry" />
        </mxCell>
        <mxCell id="SJl9S5k6pzfphBeWM_fD-1" value="Start" style="strokeWidth=2;html=1;shape=mxgraph.flowchart.terminator;whiteSpace=wrap;" vertex="1" parent="1">
          <mxGeometry x="110" y="40" width="100" height="60" as="geometry" />
        </mxCell>
        <mxCell id="SJl9S5k6pzfphBeWM_fD-29" value="End" style="strokeWidth=2;html=1;shape=mxgraph.flowchart.terminator;whiteSpace=wrap;" vertex="1" parent="1">
          <mxGeometry x="110" y="440" width="100" height="60" as="geometry" />
        </mxCell>
        <mxCell id="SJl9S5k6pzfphBeWM_fD-54" value="" style="edgeStyle=orthogonalEdgeStyle;rounded=0;orthogonalLoop=1;jettySize=auto;html=1;" edge="1" parent="1" source="SJl9S5k6pzfphBeWM_fD-45" target="SJl9S5k6pzfphBeWM_fD-46">
          <mxGeometry relative="1" as="geometry" />
        </mxCell>
        <mxCell id="SJl9S5k6pzfphBeWM_fD-45" value="input a, b" style="shape=parallelogram;html=1;strokeWidth=2;perimeter=parallelogramPerimeter;whiteSpace=wrap;rounded=1;arcSize=12;size=0.23;" vertex="1" parent="1">
          <mxGeometry x="110" y="140" width="100" height="60" as="geometry" />
        </mxCell>
        <mxCell id="SJl9S5k6pzfphBeWM_fD-55" value="" style="edgeStyle=orthogonalEdgeStyle;rounded=0;orthogonalLoop=1;jettySize=auto;html=1;" edge="1" parent="1" source="SJl9S5k6pzfphBeWM_fD-46" target="SJl9S5k6pzfphBeWM_fD-52">
          <mxGeometry relative="1" as="geometry" />
        </mxCell>
        <mxCell id="SJl9S5k6pzfphBeWM_fD-46" value="swap" style="verticalLabelPosition=middle;verticalAlign=middle;html=1;shape=process;whiteSpace=wrap;rounded=1;size=0.14;arcSize=6;labelPosition=center;align=center;" vertex="1" parent="1">
          <mxGeometry x="110" y="240" width="100" height="60" as="geometry" />
        </mxCell>
        <mxCell id="SJl9S5k6pzfphBeWM_fD-50" value="" style="edgeStyle=orthogonalEdgeStyle;rounded=0;orthogonalLoop=1;jettySize=auto;html=1;" edge="1" parent="1" source="SJl9S5k6pzfphBeWM_fD-47" target="SJl9S5k6pzfphBeWM_fD-48">
          <mxGeometry relative="1" as="geometry" />
        </mxCell>
        <mxCell id="SJl9S5k6pzfphBeWM_fD-47" value="swap" style="strokeWidth=2;html=1;shape=mxgraph.flowchart.terminator;whiteSpace=wrap;" vertex="1" parent="1">
          <mxGeometry x="330" y="40" width="100" height="60" as="geometry" />
        </mxCell>
        <mxCell id="SJl9S5k6pzfphBeWM_fD-51" value="" style="edgeStyle=orthogonalEdgeStyle;rounded=0;orthogonalLoop=1;jettySize=auto;html=1;" edge="1" parent="1" source="SJl9S5k6pzfphBeWM_fD-48" target="SJl9S5k6pzfphBeWM_fD-49">
          <mxGeometry relative="1" as="geometry" />
        </mxCell>
        <mxCell id="SJl9S5k6pzfphBeWM_fD-48" value="&lt;div&gt;temp = a&lt;/div&gt;&lt;div&gt;a = b&lt;/div&gt;&lt;div&gt;b = temp&lt;br&gt;&lt;/div&gt;" style="rounded=1;whiteSpace=wrap;html=1;absoluteArcSize=1;arcSize=14;strokeWidth=2;" vertex="1" parent="1">
          <mxGeometry x="330" y="140" width="100" height="100" as="geometry" />
        </mxCell>
        <mxCell id="SJl9S5k6pzfphBeWM_fD-49" value="return" style="strokeWidth=2;html=1;shape=mxgraph.flowchart.terminator;whiteSpace=wrap;" vertex="1" parent="1">
          <mxGeometry x="330" y="280" width="100" height="60" as="geometry" />
        </mxCell>
        <mxCell id="SJl9S5k6pzfphBeWM_fD-56" value="" style="edgeStyle=orthogonalEdgeStyle;rounded=0;orthogonalLoop=1;jettySize=auto;html=1;" edge="1" parent="1" source="SJl9S5k6pzfphBeWM_fD-52" target="SJl9S5k6pzfphBeWM_fD-29">
          <mxGeometry relative="1" as="geometry" />
        </mxCell>
        <mxCell id="SJl9S5k6pzfphBeWM_fD-52" value="&lt;div&gt;print&lt;/div&gt;&lt;div&gt;a, b&lt;br&gt;&lt;/div&gt;" style="shape=parallelogram;html=1;strokeWidth=2;perimeter=parallelogramPerimeter;whiteSpace=wrap;rounded=1;arcSize=12;size=0.23;" vertex="1" parent="1">
          <mxGeometry x="110" y="340" width="100" height="60" as="geometry" />
        </mxCell>
      </root>
    </mxGraphModel>
  </diagram>
</mxfile>
